<svg width="90" height="33" viewBox="0 0 90 33" fill="none" xmlns="http://www.w3.org/2000/svg">
<path d="M61.8181 32.8887C58.6299 32.8887 56.0163 31.896 53.9774 29.9106C51.957 27.9066 50.9467 25.3738 50.9467 22.3122C50.9467 19.2135 51.994 16.6622 54.0886 14.6582C56.2017 12.6543 58.8338 11.6523 61.9849 11.6523C63.5975 11.6523 65.1082 11.9306 66.517 12.4873C67.9442 13.0439 69.1305 13.7676 70.0759 14.6582L66.7672 18.527C65.3585 17.2652 63.7458 16.6344 61.9293 16.6344C60.2611 16.6344 58.8987 17.1725 57.8421 18.2486C56.7856 19.3248 56.2573 20.6608 56.2573 22.2566C56.2573 23.8152 56.7763 25.1512 57.8143 26.2645C58.8523 27.3778 60.224 27.9344 61.9293 27.9344C62.8376 27.9344 63.7088 27.7767 64.5429 27.4613C65.377 27.1458 66.0443 26.7562 66.5448 26.2923V24.511H61.8737V20.0578H71.2436V28.9643C68.5374 31.5805 65.3955 32.8887 61.8181 32.8887Z" fill="white"/>
<path d="M81.631 33C79.1657 33 77.1546 32.2207 75.5976 30.662C74.0591 29.1034 73.2898 27.183 73.2898 24.9007C73.2898 22.6184 74.0591 20.6979 75.5976 19.1393C77.1546 17.5621 79.1657 16.7735 81.631 16.7735C84.1148 16.7735 86.126 17.5621 87.6645 19.1393C89.2215 20.6979 90 22.6184 90 24.9007C90 27.183 89.2215 29.1034 87.6645 30.662C86.126 32.2207 84.1148 33 81.631 33ZM81.631 28.4076C82.6134 28.4076 83.4383 28.0736 84.1056 27.4056C84.7729 26.7191 85.1065 25.8748 85.1065 24.8728C85.1065 23.8894 84.7636 23.0637 84.0778 22.3957C83.4105 21.7277 82.5949 21.3937 81.631 21.3937C80.6671 21.3937 79.8516 21.737 79.1843 22.4236C78.517 23.0915 78.1833 23.908 78.1833 24.8728C78.1833 25.8748 78.517 26.7191 79.1843 27.4056C79.8516 28.0736 80.6671 28.4076 81.631 28.4076Z" fill="white"/>
<path d="M7.38753 0.648782C9.74953 0.648782 11.5001 1.31559 12.6392 2.64919C13.7951 3.9828 14.373 5.63179 14.373 7.59615C14.373 9.57854 13.7783 11.2005 12.589 12.462C11.3996 13.7235 9.55689 14.3543 7.06087 14.3543H4.69887V20.6259H0V0.648782H7.38753ZM7.28702 9.81283C8.0241 9.81283 8.58528 9.59657 8.97057 9.16404C9.35587 8.7135 9.54851 8.17285 9.54851 7.54209C9.54851 6.89331 9.34749 6.35265 8.94545 5.92013C8.56016 5.48761 8.04085 5.27135 7.38753 5.27135H4.69887V9.81283H7.28702Z" fill="white"/>
<path d="M20.6816 20.6259H16.2592V0H20.6816V20.6259Z" fill="white"/>
<path d="M34.8564 19.2202C33.667 20.4096 32.0337 21.0043 29.9565 21.0043C27.8793 21.0043 26.246 20.4096 25.0566 19.2202C23.884 18.0127 23.2977 16.3097 23.2977 14.111V5.70387H27.7453V14.1651C27.7453 14.904 27.9463 15.5077 28.3483 15.9763C28.7504 16.4268 29.2864 16.6521 29.9565 16.6521C30.6433 16.6521 31.1877 16.4268 31.5898 15.9763C31.9918 15.5077 32.1929 14.904 32.1929 14.1651V5.70387H36.6404V14.111C36.6404 16.3097 36.0458 18.0127 34.8564 19.2202Z" fill="white"/>
<path d="M49.604 5.70387H53.5993V19.1931C53.5993 21.554 52.8538 23.4372 51.3629 24.8429C49.872 26.2486 47.9874 26.9515 45.7092 26.9515C43.2132 26.9515 41.0271 26.2036 39.1509 24.7078L40.759 21.2206C42.3672 22.3559 43.9586 22.9236 45.5333 22.9236C46.7729 22.9236 47.7194 22.5992 48.3727 21.9505C49.0428 21.3017 49.3778 20.4817 49.3778 19.4905V19.1661C48.4062 20.1573 47.1163 20.6529 45.5082 20.6529C43.4477 20.6529 41.7893 19.941 40.5329 18.5173C39.2765 17.0936 38.6483 15.2644 38.6483 13.0297C38.6483 10.7409 39.3184 8.88471 40.6585 7.46099C41.9987 6.03728 43.6822 5.32542 45.7092 5.32542C47.2503 5.32542 48.5486 5.86607 49.604 6.94737V5.70387ZM44.0005 15.5708C44.6036 16.2195 45.3574 16.5439 46.262 16.5439C47.1666 16.5439 47.912 16.2195 48.4983 15.5708C49.1014 14.904 49.4029 14.075 49.4029 13.0838C49.4029 12.1106 49.1014 11.3086 48.4983 10.6779C47.912 10.0291 47.1666 9.7047 46.262 9.7047C45.3574 9.7047 44.6036 10.0201 44.0005 10.6508C43.4142 11.2816 43.121 12.0926 43.121 13.0838C43.121 14.075 43.4142 14.904 44.0005 15.5708Z" fill="white"/>
</svg>
